<svg xmlns="http://www.w3.org/2000/svg" width="87" height="79" viewBox="0 0 87 79" fill="none"><path d="M64.5365 36.3162L68.0382 57.0717L47.2821 60.5703L43.7868 39.8193L64.5365 36.3162ZM68.4211 30.8556L38.3227 35.9321L43.3967 66.0319L73.5005 60.9577L68.4211 30.8556Z" fill="#B03BC5" fill-opacity="0.54"></path><path d="M49.7776 29.3852L52.3113 44.4026L37.2936 46.9337L34.7624 31.9183L49.7776 29.3852ZM52.5902 25.4316L30.8071 29.1044L34.4809 50.8873L56.2645 47.2149L52.5902 25.4316" fill="#8661DE" fill-opacity="0.44"></path><path d="M23.2226 24.5615C21.2309 27.3613 17.3466 28.0163 14.5464 26.0242C11.7467 24.0325 11.0912 20.1479 13.083 17.3481C15.0755 14.5472 18.9603 13.8925 21.76 15.8843C24.5602 17.8763 25.2152 21.7606 23.2226 24.5615Z" fill="#B03BC5" fill-opacity="0.54"></path></svg>