<svg xmlns="http://www.w3.org/2000/svg" width="124" height="102" viewBox="0 0 124 102" fill="none"><path d="M67.0106 56.4346C67.0106 74.6666 52.2306 89.4453 33.9986 89.4453C15.7666 89.4453 0.986572 74.6666 0.986572 56.4346C0.986572 38.2026 15.7666 23.4226 33.9986 23.4226C52.2306 23.4226 67.0106 38.2026 67.0106 56.4346Z" fill="#B03BC5" fill-opacity="0.42"></path><path d="M23.4026 50.552C22.8853 50.0347 22.8853 49.2053 23.4026 48.6893C23.916 48.176 24.748 48.172 25.264 48.6893C25.776 49.2013 25.7773 50.0387 25.264 50.552C24.7493 51.068 23.9146 51.064 23.4026 50.552ZM28.1413 45.8107C27.6253 45.2947 27.6253 44.4654 28.1413 43.948C28.6547 43.436 29.488 43.4307 30.0053 43.948C30.5173 44.4614 30.5173 45.2987 30.0053 45.8107C29.488 46.328 28.6547 46.3227 28.1413 45.8107ZM32.884 41.0707C32.3653 40.5534 32.3706 39.7214 32.884 39.208C33.396 38.6947 34.2293 38.6907 34.7467 39.208C35.2573 39.72 35.2573 40.5587 34.7467 41.0707C34.2333 41.5827 33.396 41.5827 32.884 41.0707ZM37.624 36.3307C37.1066 35.8133 37.1106 34.98 37.624 34.468C38.14 33.9507 38.9693 33.9507 39.4853 34.468C39.9986 34.9787 40.0026 35.8133 39.4853 36.3307C38.9733 36.8427 38.136 36.8427 37.624 36.3307ZM42.364 31.5893C41.848 31.0733 41.852 30.24 42.364 29.7267C42.88 29.2107 43.7093 29.2107 44.2266 29.7267C44.7386 30.24 44.744 31.0733 44.2266 31.5893C43.7146 32.1013 42.876 32.1013 42.364 31.5893ZM47.1093 26.8454C46.592 26.328 46.592 25.5 47.104 24.9867C47.6213 24.4707 48.4547 24.4654 48.972 24.9827C49.4827 25.4947 49.484 26.3334 48.968 26.8494C48.4546 27.3614 47.6213 27.3574 47.1093 26.8454V26.8454ZM51.8493 22.104C51.332 21.5867 51.332 20.7587 51.8493 20.2414C52.3613 19.7294 53.1947 19.724 53.712 20.2414C54.224 20.7534 54.224 21.592 53.712 22.104C53.1947 22.6214 52.3613 22.616 51.8493 22.104ZM56.5893 17.364C56.0733 16.8467 56.0733 16.0187 56.5893 15.5013C57.1013 14.9893 57.9346 14.984 58.452 15.5013C58.964 16.0133 58.9653 16.852 58.452 17.364C57.9346 17.8813 57.1013 17.876 56.5893 17.364ZM61.3306 12.624C60.8133 12.1067 60.8173 11.2733 61.3306 10.7613C61.8466 10.244 62.676 10.244 63.1933 10.7613C63.704 11.2733 63.7093 12.1067 63.1933 12.624C62.6813 13.136 61.8426 13.136 61.3306 12.624ZM66.0707 7.884C65.5533 7.36533 65.5587 6.532 66.0707 6.02C66.5867 5.504 67.4173 5.50267 67.9333 6.02C68.4453 6.532 68.4493 7.36667 67.9333 7.884C67.4213 8.39467 66.584 8.39467 66.0707 7.884Z" fill="#1A1A1A"></path><path d="M72.6731 3.14266C72.4304 3.38533 72.0904 3.52931 71.7424 3.52531C71.3971 3.52531 71.0518 3.38533 70.8104 3.14266C70.5678 2.89999 70.4291 2.556 70.4278 2.212C70.4238 1.51733 71.0531 0.889307 71.7424 0.889307C72.0904 0.893307 72.4358 1.03333 72.6784 1.27599C72.9198 1.51733 73.0598 1.86266 73.0598 2.20666C73.0651 2.55599 72.9198 2.89599 72.6731 3.14266" fill="#1A1A1A"></path><path d="M28.5279 55.6787C28.0119 55.1614 28.0119 54.3334 28.5279 53.816C29.0399 53.304 29.8732 53.2987 30.3919 53.816C30.9039 54.328 30.9039 55.1667 30.3919 55.6787C29.8745 56.1947 29.0399 56.1907 28.5279 55.6787ZM33.2692 50.9387C32.7519 50.4214 32.7519 49.592 33.2692 49.0747C33.7812 48.5627 34.6145 48.5574 35.1319 49.0747C35.6439 49.5867 35.6439 50.4254 35.1319 50.9387C34.6145 51.4547 33.7812 51.4494 33.2692 50.9387ZM38.0106 46.1974C37.4932 45.68 37.4919 44.852 38.0106 44.3347C38.5226 43.8227 39.3559 43.8174 39.8719 44.3347C40.3839 44.8467 40.3839 45.6854 39.8719 46.1974C39.3559 46.7147 38.5226 46.7094 38.0106 46.1974ZM42.7505 41.4574C42.2332 40.94 42.2385 40.1067 42.7505 39.5947C43.2665 39.0774 44.0959 39.0774 44.6132 39.5947C45.1252 40.1067 45.1292 40.94 44.6132 41.4574C44.0999 41.9694 43.2625 41.9694 42.7505 41.4574ZM47.4905 36.7173C46.9732 36.2 46.9772 35.3654 47.4905 34.8547C48.0079 34.3374 48.8359 34.3374 49.3532 34.8547C49.8652 35.3654 49.8692 36.2 49.3532 36.7173C48.8412 37.228 48.0025 37.228 47.4905 36.7173ZM52.2359 31.972C51.7172 31.4547 51.7185 30.6254 52.2305 30.1134C52.7479 29.596 53.5772 29.596 54.0932 30.1134C54.6052 30.6254 54.6105 31.46 54.0932 31.976C53.5812 32.488 52.7479 32.484 52.2359 31.972ZM56.9759 27.2307C56.4599 26.7147 56.4599 25.8854 56.9759 25.368C57.4879 24.8574 58.3212 24.852 58.8385 25.368C59.3519 25.88 59.3519 26.72 58.8385 27.2307C58.3212 27.748 57.4879 27.744 56.9759 27.2307ZM61.7159 22.4907C61.1986 21.9734 61.1986 21.1454 61.7159 20.628C62.2292 20.116 63.0612 20.1107 63.5799 20.628C64.0906 21.14 64.0906 21.9787 63.5799 22.4907C63.0612 23.008 62.2279 23.0027 61.7159 22.4907ZM66.4572 17.7507C65.9399 17.2333 65.9452 16.4 66.4572 15.888C66.9692 15.376 67.8039 15.3707 68.3199 15.888C68.8319 16.4 68.8319 17.2387 68.3199 17.7507C67.8065 18.2627 66.9692 18.2627 66.4572 17.7507ZM71.1959 13.0094C70.6799 12.4934 70.6852 11.66 71.1959 11.1467C71.7132 10.6307 72.5425 10.6307 73.0599 11.1467C73.5719 11.66 73.5772 12.4934 73.0599 13.0094C72.5479 13.5227 71.7092 13.5227 71.1959 13.0094Z" fill="#1A1A1A"></path><path d="M77.8012 8.26921C77.5586 8.51187 77.2132 8.65186 76.8679 8.65186C76.5252 8.65186 76.1799 8.51187 75.9372 8.26921C75.6906 8.02254 75.5559 7.68254 75.5505 7.3332C75.5559 6.63987 76.1746 6.01989 76.8679 6.01589C77.2172 6.01989 77.5586 6.15587 77.8052 6.40254C78.0466 6.64387 78.1879 6.9892 78.1879 7.3332C78.1879 7.6772 78.0466 8.02254 77.8012 8.26921Z" fill="#1A1A1A"></path><path d="M30.6159 65.3827C30.3679 65.6293 30.0319 65.7693 29.6839 65.7747C29.3399 65.7733 28.9946 65.6333 28.7479 65.388C28.5052 65.1453 28.3652 64.8 28.3652 64.456C28.3692 63.7626 28.9892 63.1427 29.6839 63.1387C30.0279 63.1387 30.3679 63.2813 30.6106 63.5253C30.8572 63.772 31.0012 64.1106 31.0012 64.456C30.9972 64.8053 30.8586 65.14 30.6159 65.3827Z" fill="#1A1A1A"></path><path d="M33.4919 60.6428C32.9799 60.1294 32.9759 59.2961 33.4919 58.7801C34.0053 58.2681 34.8426 58.2681 35.3559 58.7801C35.8719 59.2961 35.8666 60.1294 35.3559 60.6428C34.8386 61.1601 34.0093 61.1601 33.4919 60.6428ZM38.2333 55.9014C37.7213 55.3894 37.716 54.5561 38.2333 54.0388C38.7466 53.5268 39.584 53.5268 40.096 54.0388C40.612 54.5561 40.608 55.3894 40.096 55.9014C39.58 56.4188 38.7506 56.4188 38.2333 55.9014ZM42.9733 51.1614C42.4626 50.6481 42.4626 49.8108 42.9733 49.2988C43.4853 48.7868 44.324 48.7868 44.8373 49.2988C45.3533 49.8148 45.3493 50.6494 44.8373 51.1614C44.324 51.6734 43.4906 51.6774 42.9733 51.1614ZM47.7133 46.4214C47.2013 45.9081 47.2013 45.0707 47.7133 44.5587C48.2306 44.0414 49.0653 44.0467 49.5773 44.5587C50.0933 45.0747 50.0933 45.9041 49.5773 46.4214C49.0653 46.9334 48.2306 46.9374 47.7133 46.4214ZM52.4546 41.6801C51.9413 41.1681 51.9426 40.3307 52.4546 39.8187C52.9719 39.3014 53.8053 39.3054 54.3173 39.8187C54.8333 40.3347 54.8333 41.1641 54.3173 41.6801C53.8053 42.1934 52.9719 42.1974 52.4546 41.6801ZM57.1946 36.9401C56.6826 36.4281 56.6826 35.5894 57.1946 35.0788C57.7119 34.5601 58.5439 34.5654 59.0573 35.0788C59.5746 35.5948 59.5746 36.4228 59.0573 36.9401C58.5453 37.4521 57.7106 37.4574 57.1946 36.9401ZM61.94 32.1947C61.4266 31.6827 61.4226 30.8494 61.94 30.3334C62.452 29.8201 63.2906 29.8201 63.8026 30.3334C64.3186 30.8494 64.3146 31.6827 63.8026 32.1947C63.2853 32.7121 62.4573 32.7121 61.94 32.1947ZM66.6813 27.4547C66.168 26.9427 66.164 26.1094 66.6813 25.5921C67.1933 25.0801 68.0293 25.0801 68.5426 25.5921C69.06 26.1094 69.056 26.9427 68.5426 27.4547C68.0266 27.9721 67.196 27.9721 66.6813 27.4547ZM71.4199 22.7148C70.9093 22.2014 70.9093 21.3641 71.4199 20.8521C71.9319 20.3387 72.7706 20.3387 73.2839 20.8521C73.8013 21.3681 73.7959 22.2028 73.2839 22.7148C72.7706 23.2268 71.9373 23.2308 71.4199 22.7148ZM76.1613 17.9734C75.6479 17.4614 75.6493 16.6228 76.1613 16.1108C76.6773 15.5948 77.5119 15.5988 78.0239 16.1108C78.5399 16.6281 78.5399 17.4574 78.0239 17.9734C77.5119 18.4868 76.6773 18.4908 76.1613 17.9734Z" fill="#1A1A1A"></path><path d="M82.7638 13.2335C82.5225 13.4761 82.1825 13.6201 81.8371 13.6201C81.4878 13.6148 81.1465 13.4801 80.9011 13.2335C80.6585 12.9921 80.5198 12.6468 80.5198 12.3028C80.5238 11.6081 81.1425 10.9894 81.8371 10.9841C82.1825 10.9841 82.5225 11.1295 82.7638 11.3708C83.0105 11.6175 83.1544 11.9575 83.1544 12.3028C83.1504 12.6521 83.0105 12.9868 82.7638 13.2335Z" fill="#1A1A1A"></path><path d="M35.7425 70.5092C35.4945 70.7559 35.1598 70.8946 34.8091 70.8999C34.4625 70.8946 34.1211 70.7612 33.8745 70.5132C33.6278 70.2679 33.4931 69.9266 33.4878 69.5786C33.4918 68.8852 34.1118 68.2652 34.8051 68.2612C35.1545 68.2652 35.4905 68.4039 35.7371 68.6519C35.9838 68.8986 36.1238 69.2332 36.1238 69.5786C36.1238 69.9319 35.9838 70.2679 35.7425 70.5092" fill="#1A1A1A"></path><path d="M38.6199 65.7693C38.1026 65.252 38.1026 64.424 38.6199 63.9066C39.1319 63.3933 39.9653 63.3893 40.4813 63.9066C40.9946 64.4186 40.9946 65.2573 40.4813 65.7693C39.9653 66.2853 39.1319 66.28 38.6199 65.7693ZM43.3613 61.028C42.8439 60.5106 42.8439 59.6826 43.3613 59.1666C43.8719 58.6533 44.7053 58.6493 45.2226 59.1666C45.7346 59.6773 45.7359 60.516 45.2226 61.028C44.7053 61.5453 43.8719 61.5413 43.3613 61.028ZM48.0999 56.2879C47.5839 55.7706 47.5839 54.9426 48.0999 54.4253C48.6133 53.9133 49.4466 53.908 49.9639 54.4253C50.4746 54.9373 50.4746 55.7759 49.9639 56.2879C49.4466 56.8053 48.6133 56.7999 48.0999 56.2879ZM52.8413 51.548C52.324 51.0306 52.328 50.1973 52.8413 49.6853C53.3586 49.1679 54.188 49.1679 54.704 49.6853C55.2159 50.1973 55.2199 51.0306 54.704 51.548C54.192 52.06 53.3533 52.06 52.8413 51.548ZM57.5813 46.8066C57.064 46.2906 57.0693 45.4573 57.5813 44.944C58.0973 44.428 58.9266 44.428 59.444 44.944C59.956 45.4573 59.9613 46.2906 59.444 46.8066C58.932 47.3186 58.0933 47.3186 57.5813 46.8066ZM62.3213 42.0666C61.8053 41.5506 61.8093 40.7173 62.3213 40.204C62.8386 39.688 63.6719 39.6826 64.1893 40.2C64.6999 40.712 64.6999 41.5506 64.1839 42.0666C63.6719 42.5786 62.8333 42.5786 62.3213 42.0666V42.0666ZM67.0666 37.3226C66.5493 36.8053 66.5493 35.976 67.0666 35.4586C67.5799 34.9466 68.4133 34.9426 68.9293 35.4586C69.4413 35.972 69.4413 36.8093 68.9293 37.3226C68.4133 37.8386 67.5799 37.8333 67.0666 37.3226ZM71.8066 32.5813C71.2906 32.064 71.2906 31.2359 71.8066 30.7199C72.32 30.2066 73.1519 30.2013 73.6693 30.7199C74.1826 31.2306 74.1826 32.0693 73.6693 32.5813C73.1519 33.0986 72.3186 33.0933 71.8066 32.5813ZM76.548 27.8413C76.0293 27.324 76.0293 26.496 76.548 25.9786C77.06 25.4666 77.8933 25.4613 78.4106 25.9786C78.9226 26.4906 78.9226 27.3293 78.4106 27.8413C77.8933 28.3586 77.06 28.3533 76.548 27.8413ZM81.2879 23.1013C80.7706 22.584 80.7759 21.7506 81.2879 21.2386C81.8053 20.7213 82.6333 20.7213 83.1506 21.2386C83.6626 21.7506 83.6679 22.584 83.1506 23.1013C82.6386 23.612 81.7999 23.612 81.2879 23.1013Z" fill="#1A1A1A"></path><path d="M87.8906 18.3614C87.6479 18.6027 87.3079 18.748 86.9639 18.748C86.6159 18.7427 86.2692 18.6027 86.0279 18.3614C85.7812 18.1134 85.6466 17.7734 85.6453 17.4294C85.6453 16.7307 86.2652 16.1107 86.9599 16.1067C87.3079 16.1107 87.6519 16.2507 87.8959 16.4934C88.1386 16.7347 88.2773 17.08 88.2773 17.424C88.2773 17.7774 88.1386 18.1134 87.8906 18.3614" fill="#1A1A1A"></path><path d="M40.3891 75.1666C40.1464 75.4079 39.8065 75.5532 39.4625 75.5532C39.1131 75.5479 38.7771 75.4079 38.5305 75.1626C38.2891 74.9199 38.1451 74.5786 38.1438 74.2346C38.1438 73.5466 38.7638 72.9172 39.4625 72.9172C39.8065 72.9172 40.1464 73.0599 40.3891 73.3026C40.6371 73.5506 40.7758 73.8852 40.7798 74.2346C40.7758 74.5839 40.6371 74.9199 40.3891 75.1666" fill="#1A1A1A"></path><path d="M43.2719 70.4214C42.7586 69.9094 42.7546 69.0747 43.2666 68.5627C43.7839 68.0467 44.6213 68.0467 45.1346 68.5574C45.6493 69.0747 45.6466 69.9094 45.1293 70.4267C44.6173 70.9387 43.7879 70.9387 43.2719 70.4214V70.4214ZM48.0119 65.6801C47.4999 65.1681 47.4959 64.3347 48.0119 63.8187C48.5253 63.3054 49.3613 63.3054 49.8746 63.8187C50.3919 64.3334 50.3879 65.1681 49.8746 65.6801C49.3586 66.1974 48.5279 66.1974 48.0119 65.6801ZM52.7519 60.9401C52.2413 60.4281 52.2359 59.5947 52.7519 59.0774C53.2639 58.5654 54.1026 58.5641 54.616 59.0774C55.1333 59.5934 55.128 60.4281 54.616 60.9401C54.0973 61.4574 53.2693 61.4561 52.7519 60.9401ZM57.4933 56.2001C56.9799 55.6881 56.9799 54.8494 57.4933 54.3361C58.0093 53.8201 58.8426 53.8241 59.3559 54.3361C59.8719 54.8547 59.8719 55.6827 59.3559 56.2001C58.8426 56.7121 58.0093 56.7161 57.4933 56.2001ZM62.2333 51.4601C61.7213 50.9467 61.7213 50.1094 62.2333 49.5961C62.7506 49.0801 63.5839 49.0841 64.0959 49.5961C64.6119 50.1134 64.6119 50.9427 64.0959 51.4601C63.5839 51.9721 62.7506 51.9761 62.2333 51.4601ZM66.9733 46.7201C66.4613 46.2067 66.4626 45.3681 66.9773 44.8521C67.4906 44.3401 68.3239 44.3441 68.8359 44.8574C69.3533 45.3734 69.3533 46.2027 68.8413 46.7147C68.3239 47.2307 67.4893 47.2361 66.9733 46.7201V46.7201ZM71.7186 41.9734C71.2053 41.4614 71.2013 40.6281 71.7186 40.1107C72.2319 39.5987 73.0693 39.5987 73.5826 40.1107C74.0973 40.6281 74.0933 41.4614 73.5826 41.9734C73.0653 42.4907 72.2359 42.4907 71.7186 41.9734ZM76.4586 37.2334C75.9466 36.7214 75.9413 35.8881 76.4586 35.3707C76.9719 34.8587 77.8093 34.8587 78.3213 35.3707C78.8386 35.8881 78.8346 36.7214 78.3213 37.2334C77.8053 37.7507 76.9759 37.7507 76.4586 37.2334ZM81.1986 32.4934C80.6879 31.9801 80.6826 31.1481 81.1986 30.6307C81.7159 30.1134 82.5493 30.1174 83.0626 30.6307C83.5786 31.1467 83.5786 31.9761 83.0626 32.4934C82.5453 33.0094 81.7159 33.0094 81.1986 32.4934ZM85.9399 27.7521C85.4266 27.2401 85.4279 26.4027 85.9399 25.8894C86.4573 25.3734 87.2906 25.3774 87.8026 25.8894C88.3186 26.4067 88.3186 27.2361 87.8026 27.7521C87.2906 28.2654 86.4573 28.2694 85.9399 27.7521Z" fill="#1A1A1A"></path><path d="M92.5466 23.008C92.3013 23.2547 91.9613 23.3987 91.6159 23.3987C91.2666 23.3933 90.9266 23.2587 90.6813 23.012C90.4373 22.7707 90.2986 22.4254 90.2986 22.0814C90.3039 21.388 90.9173 20.7627 91.6159 20.7627C91.9613 20.7627 92.3013 20.908 92.5426 21.1494C92.7893 21.396 92.9293 21.732 92.9333 22.0814C92.9293 22.4307 92.7906 22.7654 92.5466 23.008" fill="#1A1A1A"></path><path d="M45.5158 80.2933C45.2744 80.5346 44.9331 80.68 44.5837 80.6747C44.2411 80.6747 43.8957 80.5346 43.6531 80.2933C43.4064 80.0466 43.2718 79.7066 43.2718 79.3613C43.2664 78.6666 43.8904 78.044 44.5837 78.04C44.9331 78.044 45.2731 78.1786 45.5211 78.4253C45.7611 78.6666 45.9024 79.012 45.9024 79.3573C45.9024 79.7106 45.7624 80.0466 45.5158 80.2933" fill="#1A1A1A"></path><path d="M48.3985 75.5493C47.8812 75.032 47.8812 74.2026 48.3985 73.6853C48.9118 73.172 49.7438 73.168 50.2598 73.6853C50.7718 74.1973 50.7732 75.036 50.2598 75.5493C49.7452 76.064 48.9105 76.06 48.3985 75.5493ZM53.1385 70.808C52.6212 70.2907 52.6212 69.4613 53.1385 68.944C53.6505 68.4333 54.4838 68.428 55.0012 68.944C55.5145 69.456 55.5145 70.2947 55.0012 70.808C54.4838 71.3253 53.6505 71.32 53.1385 70.808ZM57.8798 66.0667C57.3612 65.5493 57.3612 64.7227 57.8798 64.204C58.3918 63.692 59.2252 63.6867 59.7425 64.204C60.2545 64.716 60.2545 65.5547 59.7425 66.0667C59.2252 66.584 58.3918 66.5787 57.8798 66.0667ZM62.6198 61.3266C62.1025 60.8093 62.1078 59.976 62.6198 59.464C63.1372 58.9467 63.9652 58.9467 64.4825 59.464C64.9945 59.976 64.9985 60.8093 64.4825 61.3266C63.9705 61.8386 63.1318 61.8386 62.6198 61.3266ZM67.3612 56.5866C66.8438 56.0693 66.8492 55.236 67.3612 54.7226C67.8758 54.2066 68.7052 54.2066 69.2225 54.7226C69.7345 55.236 69.7398 56.0693 69.2225 56.5866C68.7105 57.0986 67.8718 57.0986 67.3612 56.5866ZM72.0998 51.8467C71.5838 51.3293 71.5878 50.496 72.0998 49.9827C72.6172 49.4667 73.4505 49.4613 73.9678 49.9787C74.4785 50.4907 74.4798 51.3293 73.9638 51.8467C73.4505 52.3587 72.6118 52.3587 72.0998 51.8467ZM76.8452 47.1013C76.3278 46.584 76.3278 45.7547 76.8452 45.2387C77.3585 44.7267 78.1918 44.7213 78.7078 45.2387C79.2198 45.7507 79.2198 46.588 78.7078 47.1013C78.1918 47.6173 77.3585 47.612 76.8452 47.1013ZM81.5852 42.36C81.0692 41.844 81.0692 41.0147 81.5852 40.4987C82.0972 39.9853 82.9318 39.9813 83.4478 40.4987C83.9612 41.0093 83.9612 41.848 83.4478 42.36C82.9318 42.8773 82.0972 42.872 81.5852 42.36ZM86.3265 37.62C85.8092 37.1026 85.8092 36.2746 86.3265 35.7573C86.8385 35.2453 87.6718 35.24 88.1892 35.7573C88.6998 36.2693 88.6998 37.108 88.1892 37.62C87.6718 38.1373 86.8385 38.132 86.3265 37.62ZM91.0665 32.88C90.5492 32.3627 90.5545 31.528 91.0665 31.0173C91.5838 30.5 92.4132 30.5 92.9292 31.0173C93.4412 31.528 93.4452 32.3627 92.9292 32.88C92.4172 33.3907 91.5798 33.3907 91.0665 32.88Z" fill="#1A1A1A"></path><path d="M97.6693 28.1387C97.428 28.3814 97.0866 28.5267 96.7386 28.5213C96.3946 28.5213 96.0586 28.3814 95.8106 28.1347C95.5653 27.888 95.4253 27.552 95.4253 27.208C95.4253 26.5094 96.044 25.8893 96.744 25.8893C97.0866 25.8893 97.4226 26.0294 97.6693 26.2774C97.912 26.5187 98.056 26.8587 98.056 27.2027C98.0613 27.552 97.9173 27.892 97.6693 28.1387Z" fill="#1A1A1A"></path><path d="M53.3665 80.5161C52.8505 80.0001 52.8505 79.1694 53.3665 78.6547C53.8785 78.1414 54.7118 78.1374 55.2292 78.6547C55.7412 79.1667 55.7425 80.0041 55.2292 80.5161C54.7132 81.0334 53.8785 81.0294 53.3665 80.5161ZM58.1065 75.7761C57.5892 75.2587 57.5892 74.4308 58.1065 73.9134C58.6198 73.4001 59.4532 73.3961 59.9705 73.9134C60.4812 74.4254 60.4825 75.2641 59.9705 75.7761C59.4532 76.2934 58.6198 76.2881 58.1065 75.7761ZM62.8478 71.0347C62.3305 70.5174 62.3305 69.6907 62.8478 69.1721C63.3612 68.6614 64.1945 68.6561 64.7105 69.1721C65.2225 69.6841 65.2225 70.5227 64.7105 71.0347C64.1945 71.5534 63.3612 71.5481 62.8478 71.0347ZM67.5878 66.2947C67.0718 65.7774 67.0758 64.9441 67.5878 64.4334C68.1051 63.9161 68.9331 63.9147 69.4505 64.4334C69.9638 64.9441 69.9678 65.7774 69.4505 66.2947C68.9385 66.8067 68.0998 66.8067 67.5878 66.2947ZM72.3292 61.5547C71.8105 61.0387 71.8158 60.2041 72.3292 59.6921C72.8452 59.1747 73.6745 59.1747 74.1918 59.6921C74.7025 60.2041 74.7078 61.0387 74.1918 61.5547C73.6798 62.0667 72.8412 62.0667 72.3292 61.5547ZM77.0692 56.8148C76.5518 56.2974 76.5572 55.4641 77.0692 54.9521C77.5852 54.4347 78.4145 54.4347 78.9305 54.9521C79.4438 55.4641 79.4492 56.2974 78.9305 56.8148C78.4185 57.3268 77.5812 57.3268 77.0692 56.8148ZM81.8132 52.0694C81.2972 51.5521 81.2972 50.7241 81.8132 50.2067C82.3252 49.6947 83.1598 49.6907 83.6772 50.2067C84.1892 50.7187 84.1892 51.5574 83.6772 52.0694C83.1598 52.5867 82.3252 52.5814 81.8132 52.0694ZM86.5545 47.3294C86.0371 46.8121 86.0371 45.9841 86.5545 45.4667C87.0665 44.9534 87.8998 44.9494 88.4171 45.4667C88.9291 45.9787 88.9291 46.8161 88.4171 47.3294C87.8998 47.8454 87.0665 47.8414 86.5545 47.3294ZM91.2958 42.5881C90.7785 42.0707 90.7825 41.2387 91.2958 40.7254C91.8065 40.2134 92.6398 40.2081 93.1571 40.7254C93.6691 41.2374 93.6691 42.0761 93.1571 42.5881C92.6451 43.1001 91.8065 43.1001 91.2958 42.5881ZM96.0345 37.8481C95.5185 37.3307 95.5238 36.4974 96.0345 35.9854C96.5518 35.4694 97.3812 35.4694 97.8985 35.9854C98.4105 36.4974 98.4145 37.3321 97.8985 37.8481C97.3865 38.3601 96.5478 38.3601 96.0345 37.8481Z" fill="#1A1A1A"></path><path d="M102.639 33.1079C102.397 33.3493 102.056 33.4853 101.707 33.4893C101.361 33.4893 101.019 33.3506 100.775 33.1079C100.528 32.8613 100.394 32.5213 100.389 32.1719C100.393 31.4773 101.013 30.8586 101.707 30.8546C102.056 30.8586 102.392 30.9986 102.639 31.2453C102.881 31.4879 103.025 31.8279 103.025 32.1719C103.021 32.5213 102.885 32.8613 102.639 33.1079" fill="#1A1A1A"></path><path d="M58.489 85.6386C57.9757 85.1266 57.9717 84.2919 58.489 83.7773C59.001 83.264 59.8397 83.2653 60.3517 83.7773C60.8677 84.2933 60.8637 85.1253 60.3517 85.6386C59.8357 86.1559 59.0064 86.1559 58.489 85.6386ZM63.229 80.8973C62.717 80.3866 62.7117 79.5533 63.229 79.0359C63.7424 78.5226 64.581 78.5226 65.0917 79.0359C65.609 79.5533 65.6037 80.3866 65.0917 80.8973C64.5757 81.4159 63.7464 81.4159 63.229 80.8973ZM67.9704 76.1573C67.4584 75.6453 67.4584 74.8079 67.9704 74.2946C68.4824 73.7826 69.321 73.7826 69.833 74.2946C70.3504 74.8119 70.345 75.6453 69.833 76.1573C69.3197 76.6693 68.4877 76.6733 67.9704 76.1573ZM72.7104 71.4173C72.1971 70.9053 72.1971 70.0666 72.7104 69.5546C73.2277 69.0386 74.0611 69.0426 74.5731 69.5546C75.0891 70.0719 75.0891 70.8999 74.5731 71.4173C74.0611 71.9293 73.2277 71.9346 72.7104 71.4173ZM77.4504 66.6759C76.9384 66.1653 76.9384 65.3266 77.4504 64.8146C77.9677 64.2973 78.8024 64.3026 79.3131 64.8146C79.8304 65.332 79.8291 66.1613 79.3131 66.6759C78.8024 67.1893 77.9677 67.1933 77.4504 66.6759ZM82.1917 61.9373C81.6784 61.4253 81.6784 60.5853 82.1917 60.0733C82.7077 59.5559 83.541 59.5613 84.053 60.0733C84.5717 60.5906 84.5717 61.4199 84.053 61.9373C83.541 62.4479 82.7077 62.4533 82.1917 61.9373ZM86.9357 57.1919C86.4237 56.6799 86.4184 55.8466 86.9357 55.3293C87.4477 54.8159 88.2864 54.8159 88.7984 55.3293C89.3157 55.8466 89.3104 56.6799 88.7984 57.1919C88.281 57.7093 87.4531 57.7093 86.9357 57.1919ZM91.6771 52.4506C91.1651 51.9399 91.1597 51.1066 91.6771 50.5893C92.1891 50.0759 93.0277 50.0759 93.5384 50.5893C94.0557 51.1066 94.0517 51.9386 93.5384 52.4506C93.0224 52.9679 92.1944 52.9679 91.6771 52.4506ZM96.417 47.7106C95.905 47.1986 95.905 46.3613 96.417 45.848C96.929 45.336 97.7677 45.336 98.2797 45.848C98.7971 46.3653 98.7917 47.1986 98.2797 47.7106C97.7664 48.2226 96.933 48.2266 96.417 47.7106ZM101.157 42.9706C100.645 42.4586 100.645 41.6199 101.157 41.1079C101.674 40.5906 102.508 40.5959 103.021 41.1079C103.537 41.6239 103.536 42.4533 103.021 42.9706C102.509 43.4826 101.674 43.4866 101.157 42.9706Z" fill="#1A1A1A"></path><path d="M107.76 38.2293C107.519 38.4719 107.179 38.616 106.833 38.616C106.484 38.612 106.144 38.4773 105.897 38.2293C105.656 37.9879 105.517 37.6426 105.516 37.2986C105.516 36.6 106.139 35.9853 106.835 35.98C107.179 35.9813 107.523 36.1213 107.765 36.3626C108.012 36.6106 108.147 36.9493 108.152 37.2986C108.152 37.6426 108.007 37.9826 107.76 38.2293Z" fill="#1A1A1A"></path><path d="M63.9452 91.0947C63.4265 90.5774 63.4265 89.7481 63.9452 89.2307C64.4572 88.7201 65.2905 88.7147 65.8065 89.2307C66.3185 89.7441 66.3198 90.5827 65.8065 91.0947C65.2905 91.6107 64.4572 91.6067 63.9452 91.0947ZM68.6851 86.3534C68.1678 85.836 68.1678 85.0081 68.6851 84.4921C69.1971 83.9787 70.0305 83.9747 70.5478 84.4921C71.0598 85.0027 71.0612 85.8414 70.5478 86.3534C70.0305 86.8707 69.1958 86.8654 68.6851 86.3534ZM73.4251 81.6121C72.9091 81.0961 72.9145 80.2627 73.4251 79.7507C73.9371 79.2387 74.7705 79.2334 75.2891 79.7507C75.8011 80.2627 75.8011 81.1014 75.2891 81.6121C74.7758 82.1254 73.9371 82.1241 73.4251 81.6121ZM78.1665 76.8734C77.6491 76.3561 77.6531 75.5227 78.1665 75.0094C78.6825 74.4947 79.5118 74.4934 80.0278 75.0094C80.5398 75.5214 80.5451 76.3561 80.0278 76.8734C79.5171 77.3854 78.6785 77.3854 78.1665 76.8734ZM82.9065 72.1321C82.3891 71.6147 82.3945 70.7814 82.9065 70.2707C83.4225 69.7534 84.2518 69.7534 84.7691 70.2707C85.2811 70.7814 85.2851 71.6147 84.7691 72.1321C84.2571 72.6454 83.4171 72.6454 82.9065 72.1321ZM87.6505 67.3881C87.1345 66.8707 87.1345 66.0427 87.6452 65.5294C88.1625 65.0121 88.9972 65.0081 89.5145 65.5254C90.0265 66.0374 90.0265 66.8761 89.5091 67.3921C88.9971 67.9041 88.1625 67.9001 87.6505 67.3881V67.3881ZM92.3918 62.6467C91.8745 62.1294 91.8745 61.3014 92.3918 60.784C92.9038 60.272 93.7385 60.268 94.2545 60.784C94.7665 61.296 94.7665 62.1347 94.2545 62.6467C93.7385 63.1654 92.9038 63.1601 92.3918 62.6467ZM97.1318 57.9067C96.6145 57.3894 96.6145 56.5614 97.1318 56.0441C97.6438 55.5321 98.4771 55.5281 98.9945 56.0441C99.5065 56.5561 99.5065 57.3934 98.9945 57.9067C98.4771 58.4241 97.6438 58.4187 97.1318 57.9067ZM101.873 53.1667C101.356 52.6494 101.361 51.8161 101.873 51.3041C102.389 50.7867 103.218 50.7867 103.736 51.3041C104.248 51.8147 104.25 52.6494 103.736 53.1667C103.222 53.6787 102.385 53.6787 101.873 53.1667ZM106.613 48.4267C106.096 47.9094 106.1 47.0761 106.613 46.5627C107.13 46.0467 107.958 46.0467 108.474 46.5627C108.988 47.0761 108.992 47.9094 108.474 48.4267C107.964 48.9387 107.125 48.9387 106.613 48.4267Z" fill="#1A1A1A"></path><path d="M113.216 43.6854C112.973 43.9281 112.634 44.0721 112.284 44.0668C111.94 44.0668 111.594 43.9281 111.353 43.6854C111.11 43.4441 110.972 43.0987 110.972 42.7547C110.966 42.0601 111.594 41.4321 112.285 41.4321C112.634 41.4374 112.977 41.5761 113.22 41.8187C113.462 42.0601 113.602 42.4054 113.601 42.7494C113.608 43.0988 113.464 43.4387 113.216 43.6854" fill="#1A1A1A"></path><path d="M69.0718 96.2214C68.5545 95.7041 68.5545 94.8748 69.0718 94.3588C69.5838 93.8454 70.4172 93.8414 70.9332 94.3588C71.4452 94.8708 71.4465 95.7094 70.9332 96.2214C70.4172 96.7374 69.5838 96.7334 69.0718 96.2214ZM73.8118 91.4815C73.2945 90.9641 73.2945 90.1348 73.8118 89.6174C74.3238 89.1068 75.1572 89.1014 75.6745 89.6174C76.1878 90.1294 76.1878 90.9681 75.6745 91.4815C75.1572 91.9988 74.3238 91.9935 73.8118 91.4815ZM78.5532 86.7401C78.0345 86.2228 78.0345 85.3948 78.5532 84.8775C79.0652 84.3655 79.8985 84.3601 80.4158 84.8775C80.9265 85.3895 80.9265 86.2268 80.4158 86.7401C79.8972 87.2575 79.0652 87.2521 78.5532 86.7401ZM83.2932 82.0001C82.7758 81.4828 82.7812 80.6494 83.2932 80.1374C83.8092 79.6201 84.6385 79.6201 85.1558 80.1374C85.6678 80.6494 85.6718 81.4828 85.1558 82.0001C84.6425 82.5121 83.8052 82.5121 83.2932 82.0001ZM88.0332 77.2588C87.5172 76.7414 87.5212 75.9081 88.0332 75.3961C88.5492 74.8801 89.3785 74.8801 89.8958 75.3961C90.4078 75.9081 90.4132 76.7428 89.8958 77.2588C89.3838 77.7721 88.5452 77.7721 88.0332 77.2588ZM92.7785 72.5135C92.2612 71.9975 92.2612 71.1681 92.7732 70.6574C93.2905 70.1388 94.1198 70.1388 94.6372 70.6574C95.1478 71.1681 95.1532 72.0014 94.6372 72.5188C94.1238 73.0321 93.2905 73.0268 92.7785 72.5135ZM97.5185 67.7748C97.0012 67.2575 97.0012 66.4295 97.5185 65.9108C98.0292 65.3988 98.8638 65.3935 99.3812 65.9108C99.8932 66.4241 99.8932 67.2628 99.3812 67.7748C98.8638 68.2908 98.0292 68.2855 97.5185 67.7748ZM102.258 63.0334C101.742 62.5161 101.742 61.6881 102.258 61.1708C102.772 60.6588 103.604 60.6548 104.121 61.1708C104.633 61.6828 104.634 62.5214 104.121 63.0334C103.604 63.5508 102.77 63.5454 102.258 63.0334ZM107 58.2921C106.483 57.7761 106.487 56.9428 107 56.4308C107.512 55.9174 108.345 55.9134 108.861 56.4308C109.373 56.9428 109.373 57.7801 108.861 58.2921C108.35 58.8054 107.512 58.8054 107 58.2921ZM111.74 53.5534C111.223 53.0361 111.228 52.2014 111.74 51.6908C112.256 51.1734 113.085 51.1721 113.603 51.6908C114.115 52.2014 114.119 53.0361 113.603 53.5534C113.091 54.0654 112.252 54.0654 111.74 53.5534Z" fill="#1A1A1A"></path><path d="M118.343 48.8122C118.1 49.0548 117.756 49.1948 117.412 49.1948C117.068 49.1948 116.723 49.0548 116.48 48.8122C116.233 48.5655 116.099 48.2255 116.093 47.8762C116.097 47.1828 116.717 46.5628 117.412 46.5588C117.761 46.5628 118.1 46.6975 118.348 46.9455C118.589 47.1868 118.729 47.5322 118.729 47.8762C118.729 48.2215 118.589 48.5655 118.343 48.8122Z" fill="#1A1A1A"></path><path d="M74.0344 101.185C73.5224 100.672 73.5184 99.8386 74.0344 99.3226C74.5478 98.8106 75.3851 98.8106 75.8984 99.3226C76.4144 99.8386 76.4104 100.672 75.8984 101.185C75.3811 101.701 74.5518 101.701 74.0344 101.185ZM78.7758 96.444C78.2624 95.932 78.2584 95.0986 78.7758 94.5813C79.2891 94.0693 80.1264 94.0693 80.6384 94.5813C81.1544 95.0986 81.1504 95.932 80.6384 96.444C80.1211 96.9613 79.2931 96.9613 78.7758 96.444ZM83.5171 91.704C83.0037 91.1906 83.0037 90.3533 83.5171 89.8413C84.0277 89.3293 84.8664 89.3293 85.3784 89.8413C85.8958 90.3573 85.8918 91.192 85.3784 91.704C84.8664 92.2173 84.0331 92.2213 83.5171 91.704ZM88.2557 86.9626C87.7451 86.4506 87.7451 85.6133 88.2557 85.1013C88.7731 84.5839 89.6064 84.5879 90.1197 85.1013C90.6371 85.6173 90.6371 86.4466 90.1197 86.9626C89.6064 87.4759 88.7731 87.4799 88.2557 86.9626ZM92.9971 82.2226C92.4838 81.7106 92.4851 80.8733 92.9971 80.3613C93.5144 79.8439 94.3478 79.8479 94.8611 80.3613C95.3758 80.8773 95.3758 81.7066 94.8611 82.2226C94.3478 82.7346 93.5144 82.7386 92.9971 82.2226ZM97.7371 77.4826C97.2251 76.9706 97.2251 76.1319 97.7371 75.6199C98.2531 75.1039 99.0864 75.1079 99.5998 75.6199C100.117 76.1373 100.117 76.9653 99.5998 77.4826C99.0864 77.996 98.2531 78 97.7371 77.4826ZM102.482 72.7373C101.97 72.2253 101.966 71.392 102.482 70.8746C102.994 70.3626 103.832 70.3626 104.345 70.8746C104.861 71.392 104.857 72.2253 104.345 72.7373C103.828 73.2546 102.998 73.2546 102.482 72.7373ZM107.222 67.9986C106.71 67.4853 106.705 66.6519 107.222 66.1346C107.736 65.6226 108.573 65.6226 109.085 66.1346C109.601 66.6519 109.597 67.4853 109.085 67.9986C108.569 68.5146 107.74 68.5133 107.222 67.9986ZM111.964 63.2573C111.45 62.7439 111.45 61.9066 111.964 61.3933C112.476 60.8826 113.313 60.8826 113.826 61.3933C114.342 61.9106 114.338 62.7453 113.826 63.2573C113.313 63.7693 112.48 63.7733 111.964 63.2573ZM116.704 58.516C116.192 58.0026 116.192 57.1666 116.704 56.6546C117.22 56.1373 118.054 56.1413 118.566 56.6546C119.084 57.1706 119.084 58 118.566 58.516C118.054 59.0293 117.22 59.0333 116.704 58.516Z" fill="#1A1A1A"></path><path d="M123.305 53.7759C123.065 54.0186 122.724 54.1626 122.38 54.1626C122.031 54.1586 121.691 54.0226 121.444 53.7759C121.201 53.5346 121.062 53.1893 121.062 52.8453C121.066 52.1506 121.687 51.5319 122.38 51.5279C122.724 51.5279 123.065 51.6706 123.305 51.9133C123.553 52.1599 123.697 52.4999 123.697 52.8453C123.693 53.1946 123.553 53.5293 123.305 53.7759" fill="#1A1A1A"></path><path d="M116.267 17.4266C116.267 18.6853 115.247 19.7053 113.988 19.7053C112.731 19.7053 111.709 18.6853 111.709 17.4266C111.709 16.168 112.731 15.148 113.988 15.148C115.247 15.148 116.267 16.168 116.267 17.4266Z" fill="#1A1A1A"></path></svg>