<svg xmlns="http://www.w3.org/2000/svg" width="86" height="107" viewBox="0 0 86 107" fill="none"><path d="M85.7799 30.0707C85.7799 31.0454 84.9906 31.8347 84.0173 31.8347C83.0426 31.8347 82.252 31.0454 82.252 30.0707C82.252 29.0974 83.0426 28.3067 84.0173 28.3067C84.9906 28.3067 85.7799 29.0974 85.7799 30.0707Z" fill="#1A1A1A"></path><path d="M24.4491 55.7813C34.6944 45.536 51.3011 45.536 61.5451 55.7813C71.7891 66.024 71.7904 82.632 61.5451 92.8773C51.3024 103.121 34.6931 103.12 24.4491 92.8773C14.2051 82.632 14.2051 66.0253 24.4491 55.7813" fill="#1A1A1A"></path><path d="M40.612 37.4186C31.5066 37.4186 22.944 40.9652 16.5053 47.4052C3.21329 60.6959 3.21329 82.3252 16.5053 95.6172C22.944 102.056 31.5053 105.601 40.6106 105.601C49.7173 105.601 58.2786 102.056 64.7173 95.6172C78.0106 82.3252 78.0106 60.6959 64.7186 47.4052C58.2786 40.9652 49.7173 37.4186 40.612 37.4186ZM40.6106 106.935C31.1493 106.935 22.2533 103.251 15.5626 96.5599C1.75061 82.7479 1.75061 60.2746 15.5626 46.4626C22.2533 39.7706 31.1493 36.0852 40.612 36.0852C50.0746 36.0852 58.9706 39.7706 65.6613 46.4626C79.4719 60.2746 79.4719 82.7479 65.6599 96.5599C58.9706 103.251 50.0746 106.935 40.6106 106.935" fill="#8661DE" fill-opacity="0.44"></path><path d="M50.9479 72.2427C51.1453 72.4414 51.2652 72.7214 51.2612 73.0107C51.2612 73.2934 51.1453 73.5694 50.9426 73.772C50.7399 73.976 50.4639 74.0907 50.1813 74.092C49.6079 74.0947 49.0906 73.5774 49.0906 73.0094C49.0932 72.7227 49.2133 72.4414 49.4133 72.2427C49.6119 72.044 49.8933 71.9227 50.1759 71.924C50.4639 71.9187 50.7439 72.0387 50.9479 72.2427" fill="#8661DE" fill-opacity="0.44"></path><path d="M47.0386 69.868C46.6133 70.2947 45.9306 70.2947 45.5053 69.868C45.0826 69.4453 45.0799 68.76 45.5053 68.3347C45.9253 67.9133 46.6173 67.912 47.0386 68.3347C47.4666 68.76 47.4599 69.448 47.0386 69.868ZM43.1346 65.964C42.7079 66.3893 42.0266 66.3893 41.5999 65.964C41.1786 65.5413 41.1746 64.856 41.5999 64.4293C42.0213 64.0093 42.7133 64.008 43.1346 64.4293C43.5599 64.856 43.5559 65.5427 43.1346 65.964ZM39.2292 62.0586C38.8039 62.484 38.1172 62.48 37.6946 62.0586C37.2746 61.6386 37.2692 60.9506 37.6946 60.5253C38.1172 60.104 38.8079 60.104 39.2306 60.5253C39.6506 60.9466 39.6506 61.6386 39.2292 62.0586V62.0586ZM35.3252 58.1546C34.8999 58.5813 34.2132 58.5773 33.7906 58.1546C33.3652 57.7306 33.3652 57.0466 33.7919 56.6213C34.2132 56.2 34.9012 56.1946 35.3252 56.62C35.7479 57.0426 35.7479 57.7346 35.3252 58.1546ZM31.4199 54.2506C30.9946 54.676 30.3079 54.672 29.8866 54.2506C29.4612 53.8253 29.4612 53.1413 29.8866 52.716C30.3079 52.296 30.9959 52.2907 31.4212 52.716C31.8426 53.1387 31.8426 53.8293 31.4199 54.2506ZM27.5133 50.3427C27.0853 50.768 26.4053 50.768 25.9826 50.3467C25.5573 49.92 25.5533 49.2347 25.9786 48.808C26.4013 48.388 27.0906 48.3853 27.5172 48.812C27.9386 49.2347 27.9333 49.92 27.5133 50.3427V50.3427ZM23.6093 46.4387C23.1826 46.864 22.4999 46.8627 22.0746 46.4373C21.6519 46.016 21.6479 45.3293 22.0746 44.904C22.4959 44.4813 23.1866 44.4813 23.6093 44.9027C24.0346 45.3293 24.0293 46.0173 23.6093 46.4387V46.4387ZM19.7039 42.5333C19.2786 42.96 18.5959 42.9587 18.1706 42.5333C17.7479 42.1107 17.7439 41.4253 18.1706 41C18.5919 40.5787 19.2813 40.5773 19.7039 40.9987C20.1306 41.424 20.1253 42.112 19.7039 42.5333ZM15.7999 38.6307C15.3746 39.056 14.6879 39.0507 14.2653 38.6293C13.8399 38.2027 13.8399 37.5213 14.2653 37.0947C14.6866 36.6733 15.3746 36.6693 15.7999 37.0947C16.2226 37.5173 16.2213 38.208 15.7999 38.6307V38.6307ZM11.8959 34.7253C11.4706 35.1506 10.7826 35.1466 10.3612 34.7253C9.93591 34.2986 9.93458 33.616 10.3612 33.1906C10.7812 32.7693 11.4706 32.764 11.8959 33.1906C12.3172 33.612 12.3172 34.304 11.8959 34.7253Z" fill="#8661DE" fill-opacity="0.44"></path><path d="M7.99185 29.2866C8.19185 29.4853 8.30919 29.7653 8.30519 30.0546C8.30653 30.3373 8.18918 30.6213 7.99051 30.82C7.79184 31.02 7.50784 31.136 7.22384 31.136C6.65184 31.1386 6.13585 30.6213 6.13452 30.0533C6.13852 29.7653 6.25317 29.4813 6.45317 29.2827C6.65184 29.084 6.93717 28.968 7.21984 28.968C7.50784 28.964 7.78785 29.0826 7.99185 29.2866" fill="#8661DE" fill-opacity="0.44"></path><path d="M55.1706 68.0201C55.3679 68.2187 55.4839 68.5027 55.4839 68.7881C55.4839 69.0707 55.3639 69.3507 55.1652 69.5494C54.9626 69.7521 54.6826 69.8721 54.3999 69.8721C53.8279 69.8681 53.3172 69.3587 53.3132 68.7867C53.3172 68.5001 53.4319 68.2227 53.6359 68.0201C53.8346 67.8201 54.1146 67.7014 54.3986 67.7014C54.6866 67.7041 54.9666 67.8161 55.1706 68.0201" fill="#8661DE" fill-opacity="0.44"></path><path d="M51.2612 65.6453C50.8359 66.072 50.1532 66.072 49.7279 65.6453C49.3052 65.2227 49.3026 64.5373 49.7279 64.112C50.1492 63.6907 50.8399 63.6893 51.2612 64.1107C51.6892 64.5373 51.6839 65.224 51.2612 65.6453ZM47.3572 61.7413C46.9306 62.1667 46.2492 62.1667 45.8226 61.7413C45.4012 61.3187 45.3972 60.6333 45.8226 60.2067C46.2452 59.7853 46.9359 59.7853 47.3586 60.2067C47.7826 60.632 47.7786 61.3187 47.3572 61.7413V61.7413ZM43.4519 57.836C43.0266 58.2613 42.3452 58.2627 41.9172 57.836C41.4972 57.416 41.4919 56.728 41.9172 56.3027C42.3399 55.88 43.0319 55.8813 43.4532 56.3027C43.8786 56.728 43.8732 57.4147 43.4519 57.836V57.836ZM39.5479 53.932C39.1226 54.3587 38.4359 54.3547 38.0133 53.9307C37.5879 53.5067 37.5879 52.824 38.0146 52.3987C38.4359 51.976 39.1239 51.972 39.5479 52.3973C39.9706 52.82 39.9706 53.5107 39.5479 53.932ZM35.6426 50.028C35.2173 50.4533 34.5306 50.4493 34.1093 50.028C33.6853 49.6026 33.6839 48.9186 34.1093 48.4933C34.5306 48.072 35.2186 48.068 35.6439 48.4933C36.0666 48.916 36.0653 49.6053 35.6426 50.028ZM31.7359 46.12C31.3093 46.5453 30.6279 46.5453 30.2053 46.124C29.7799 45.6973 29.7799 45.016 30.2053 44.5893C30.6279 44.168 31.3133 44.1626 31.7413 44.5893C32.1613 45.012 32.1573 45.6973 31.7359 46.12ZM27.8319 42.2147C27.4066 42.64 26.7226 42.64 26.2973 42.2147C25.8746 41.7933 25.8706 41.1067 26.2973 40.6813C26.7186 40.2587 27.4093 40.2587 27.8306 40.68C28.2573 41.1067 28.2519 41.7947 27.8319 42.2147ZM23.9266 38.3107C23.5012 38.7373 22.8186 38.736 22.3932 38.3107C21.9706 37.888 21.9679 37.2027 22.3932 36.7773C22.8146 36.356 23.5039 36.3547 23.9279 36.776C24.3532 37.2013 24.3492 37.8893 23.9266 38.3107ZM20.0239 34.4067C19.5972 34.832 18.9106 34.828 18.4879 34.4067C18.0666 33.984 18.0626 33.2987 18.4879 32.872C18.9106 32.4507 19.6012 32.4493 20.0226 32.8707C20.4452 33.2947 20.4439 33.9853 20.0239 34.4067V34.4067ZM16.1186 30.5027C15.6932 30.928 15.0066 30.9227 14.5839 30.5027C14.1586 30.076 14.1572 29.3933 14.5839 28.968C15.0052 28.5453 15.6932 28.5413 16.1186 28.968C16.5399 29.3893 16.5399 30.0813 16.1186 30.5027Z" fill="#8661DE" fill-opacity="0.44"></path><path d="M12.2145 25.0626C12.4145 25.2626 12.5278 25.5452 12.5278 25.8306C12.5278 26.1146 12.4132 26.3986 12.2132 26.5972C12.0105 26.8012 11.7305 26.9132 11.4439 26.9172C10.8719 26.9119 10.3612 26.4026 10.3572 25.8292C10.3612 25.5426 10.4719 25.2626 10.6759 25.0599C10.8745 24.8612 11.1585 24.7453 11.4425 24.7453C11.7265 24.7439 12.0105 24.8599 12.2145 25.0626" fill="#8661DE" fill-opacity="0.44"></path><path d="M59.2545 63.9267C59.4571 64.1307 59.5732 64.4067 59.5785 64.6947C59.5772 64.9787 59.4611 65.2627 59.2585 65.4667C59.0585 65.6653 58.7745 65.78 58.4918 65.78C57.9185 65.776 57.4105 65.2667 57.4065 64.6947C57.4065 64.412 57.5251 64.1307 57.7238 63.9307C57.9265 63.728 58.2065 63.6094 58.4918 63.608C58.7785 63.612 59.0545 63.728 59.2545 63.9267Z" fill="#8661DE" fill-opacity="0.44"></path><path d="M55.3505 61.5572C54.9265 61.9799 54.2425 61.9826 53.8159 61.5572C53.3932 61.1346 53.3932 60.4466 53.8159 60.0239C54.2425 59.5972 54.9278 59.5999 55.3505 60.0239C55.7772 60.4492 55.7758 61.1319 55.3505 61.5572ZM51.4452 57.6519C51.0238 58.0759 50.3372 58.0786 49.9118 57.6519C49.4892 57.2306 49.4878 56.5412 49.9118 56.1186C50.3372 55.6932 51.0252 55.6959 51.4452 56.1186C51.8705 56.5426 51.8705 57.2266 51.4452 57.6519ZM47.5398 53.7479C47.1185 54.1706 46.4278 54.1693 46.0065 53.7479C45.5852 53.3266 45.5838 52.6373 46.0065 52.2133C46.4318 51.7879 47.1198 51.7933 47.5412 52.2133C47.9625 52.6359 47.9665 53.3213 47.5398 53.7479ZM43.6372 49.8439C43.2145 50.2666 42.5252 50.2653 42.1012 49.8426C41.6772 49.4173 41.6798 48.7333 42.1025 48.3093C42.5278 47.8839 43.2118 47.8839 43.6372 48.3079C44.0585 48.7319 44.0625 49.4173 43.6372 49.8439V49.8439ZM39.7318 45.9386C39.3092 46.3613 38.6198 46.3613 38.1972 45.9386C37.7732 45.5146 37.7758 44.8279 38.1972 44.4053C38.6238 43.9786 39.3065 43.9786 39.7332 44.4053C40.1532 44.8266 40.1572 45.5133 39.7318 45.9386V45.9386ZM35.8278 42.0346C35.4065 42.4586 34.7158 42.4573 34.2945 42.0346C33.8678 41.6093 33.8718 40.9239 34.2945 40.5013C34.7198 40.0759 35.4025 40.0746 35.8278 40.5013C36.2505 40.9226 36.2532 41.6093 35.8278 42.0346ZM31.9185 38.1279C31.4972 38.5492 30.8105 38.5519 30.3852 38.1266C29.9638 37.7039 29.9625 37.0146 30.3852 36.5919C30.8105 36.1666 31.4972 36.1706 31.9185 36.5906C32.3452 37.0186 32.3452 37.7012 31.9185 38.1279V38.1279ZM28.0158 34.2226C27.5918 34.6439 26.9065 34.6466 26.4812 34.2226C26.0585 33.7999 26.0585 33.1106 26.4812 32.6892C26.9078 32.2626 27.5918 32.2652 28.0158 32.6879C28.4412 33.1132 28.4412 33.7972 28.0158 34.2226ZM24.1105 30.3186C23.6892 30.7412 22.9998 30.7399 22.5772 30.3172C22.1545 29.8959 22.1545 29.2052 22.5772 28.7839C23.0025 28.3586 23.6892 28.3613 24.1105 28.7826C24.5332 29.2053 24.5372 29.8919 24.1105 30.3186V30.3186ZM20.2065 26.4146C19.7838 26.8359 19.0945 26.8359 18.6732 26.4146C18.2465 25.9866 18.2492 25.3026 18.6718 24.8786C19.0972 24.4533 19.7812 24.4533 20.2078 24.8786C20.6292 25.3013 20.6332 25.9879 20.2065 26.4146" fill="#8661DE" fill-opacity="0.44"></path><path d="M16.3025 20.9747C16.5025 21.1747 16.6199 21.4547 16.6212 21.7387C16.6172 22.0267 16.5052 22.3053 16.3025 22.5093C16.1025 22.708 15.8185 22.824 15.5359 22.824C14.9639 22.82 14.4532 22.3093 14.4492 21.7387C14.4492 21.4547 14.5692 21.1747 14.7679 20.9747C14.9719 20.772 15.2505 20.652 15.5345 20.652C15.8225 20.6546 16.0985 20.7707 16.3025 20.9747" fill="#8661DE" fill-opacity="0.44"></path><path d="M63.4773 59.704C63.6799 59.908 63.7946 60.1853 63.7999 60.472C63.7959 60.7586 63.6853 61.04 63.4813 61.2426C63.2773 61.4466 62.9973 61.5573 62.7106 61.5613C62.1386 61.5573 61.6292 61.048 61.6252 60.4746C61.6292 60.1893 61.7439 59.912 61.9479 59.708C62.1493 59.5053 62.4253 59.3906 62.7093 59.3906C63.0013 59.3906 63.2773 59.5053 63.4773 59.704" fill="#8661DE" fill-opacity="0.44"></path><path d="M59.5732 57.3346C59.1465 57.7586 58.4652 57.7599 58.0385 57.3346C57.6159 56.9119 57.6132 56.2252 58.0385 55.7999C58.4612 55.3786 59.1492 55.3772 59.5732 55.8012C59.9985 56.2266 59.9945 56.9132 59.5732 57.3346ZM55.6692 53.4292C55.2439 53.8559 54.5599 53.8559 54.1345 53.4292C53.7119 53.0079 53.7079 52.3212 54.1359 51.8959C54.5559 51.4732 55.2465 51.4732 55.6679 51.8959C56.0932 52.3212 56.0892 53.0079 55.6692 53.4292ZM51.7639 49.5252C51.3385 49.9506 50.6558 49.9519 50.2292 49.5252C49.8079 49.1039 49.8052 48.4172 50.2305 47.9906C50.6505 47.5692 51.3425 47.5706 51.7625 47.9906C52.1905 48.4172 52.1852 49.1026 51.7639 49.5252ZM47.8612 45.6212C47.4345 46.0466 46.7478 46.0426 46.3238 45.6199C45.9012 45.1946 45.9012 44.5132 46.3265 44.0866C46.7478 43.6652 47.4345 43.6612 47.8598 44.0852C48.2812 44.5092 48.2812 45.1986 47.8612 45.6212V45.6212ZM43.9558 41.7159C43.5292 42.1413 42.8425 42.1386 42.4198 41.7159C41.9958 41.2906 41.9958 40.6079 42.4212 40.1826C42.8425 39.7599 43.5292 39.7559 43.9545 40.1826C44.3758 40.6039 44.3758 41.2946 43.9558 41.7159V41.7159ZM40.0518 37.8119C39.6265 38.2386 38.9385 38.2346 38.5172 37.8119C38.0905 37.3866 38.0879 36.6999 38.5145 36.2746C38.9345 35.8533 39.6252 35.8533 40.0505 36.2786C40.4718 36.6999 40.4718 37.3906 40.0518 37.8119ZM36.1425 33.9039C35.7172 34.3292 35.0332 34.3292 34.6079 33.9039C34.1865 33.4812 34.1825 32.7946 34.6079 32.3679C35.0292 31.9479 35.7199 31.9479 36.1412 32.3692C36.5679 32.7959 36.5639 33.4826 36.1425 33.9039V33.9039ZM32.2385 29.9986C31.8119 30.4239 31.1292 30.4239 30.7039 29.9999C30.2812 29.5772 30.2785 28.8906 30.7039 28.4652C31.1265 28.0439 31.8145 28.0426 32.2385 28.4652C32.6625 28.8906 32.6599 29.5786 32.2385 29.9986ZM28.3345 26.0946C27.9092 26.5212 27.2252 26.5199 26.7999 26.0946C26.3772 25.6732 26.3732 24.9852 26.7999 24.5599C27.2212 24.1386 27.9119 24.1386 28.3332 24.5612C28.7585 24.9852 28.7545 25.6746 28.3345 26.0946ZM24.4305 22.1906C24.0039 22.6159 23.3172 22.6119 22.8959 22.1919C22.4692 21.7639 22.4692 21.0826 22.8945 20.6546C23.3158 20.2346 24.0025 20.2306 24.4292 20.6572C24.8519 21.0786 24.8519 21.7692 24.4305 22.1906Z" fill="#8661DE" fill-opacity="0.44"></path><path d="M20.5253 16.752C20.724 16.952 20.8426 17.232 20.844 17.516C20.84 17.804 20.724 18.0866 20.5253 18.2853C20.3213 18.4893 20.0426 18.6013 19.7573 18.6013C19.1826 18.6013 18.672 18.0906 18.668 17.5186C18.672 17.232 18.7866 16.9493 18.988 16.7493C19.1866 16.5493 19.4706 16.4333 19.7533 16.4333C20.044 16.4333 20.3213 16.548 20.5253 16.752" fill="#8661DE" fill-opacity="0.44"></path><path d="M67.3133 55.8759C67.512 56.0759 67.6306 56.3572 67.632 56.6399C67.6266 56.9279 67.512 57.2026 67.308 57.4066C67.108 57.6066 66.8293 57.7252 66.5453 57.7266C65.9773 57.7252 65.4613 57.2159 65.46 56.6399C65.46 56.3572 65.5786 56.0772 65.7786 55.8759C65.9813 55.6746 66.2573 55.5586 66.5453 55.5546C66.832 55.5586 67.1093 55.6732 67.3133 55.8759" fill="#8661DE" fill-opacity="0.44"></path><path d="M63.4051 53.5028C62.9811 53.9254 62.2971 53.9294 61.8731 53.5068C61.4478 53.0814 61.4478 52.3921 61.8705 51.9694C62.2958 51.5428 62.9811 51.5454 63.4091 51.9721C63.8305 52.3948 63.8291 53.0788 63.4051 53.5028ZM59.4998 49.5974C59.0771 50.0214 58.3905 50.0241 57.9665 49.5974C57.5438 49.1774 57.5425 48.4868 57.9665 48.0641C58.3905 47.6388 59.0785 47.6414 59.4998 48.0641C59.9251 48.4894 59.9251 49.1734 59.4998 49.5974ZM55.5944 45.6934C55.1718 46.1161 54.4864 46.1201 54.0611 45.6948C53.6398 45.2721 53.6384 44.5828 54.0611 44.1588C54.4864 43.7348 55.1744 43.7388 55.5944 44.1588C56.0224 44.5841 56.0211 45.2681 55.5944 45.6934V45.6934ZM51.6918 41.7894C51.2678 42.2121 50.5798 42.2108 50.1558 41.7894C49.7318 41.3641 49.7344 40.6788 50.1571 40.2548C50.5838 39.8308 51.2664 39.8294 51.6918 40.2534C52.1131 40.6774 52.1171 41.3641 51.6918 41.7894V41.7894ZM47.7864 37.8841C47.3624 38.3068 46.6744 38.3054 46.2518 37.8854C45.8264 37.4601 45.8291 36.7734 46.2518 36.3508C46.6784 35.9254 47.3611 35.9254 47.7864 36.3508C48.2078 36.7721 48.2118 37.4601 47.7864 37.8841ZM43.8825 33.9801C43.4598 34.4041 42.7705 34.4028 42.3438 33.9761C41.9211 33.5548 41.9251 32.8694 42.3491 32.4468C42.7745 32.0228 43.4571 32.0214 43.8785 32.4414C44.3051 32.8681 44.3078 33.5561 43.8825 33.9801ZM39.9745 30.0721C39.5518 30.4948 38.8651 30.4974 38.4385 30.0721C38.0185 29.6494 38.0171 28.9614 38.4398 28.5374C38.8638 28.1121 39.5518 28.1161 39.9731 28.5374C40.3998 28.9641 40.3998 29.6468 39.9745 30.0721V30.0721ZM36.0705 26.1681C35.6465 26.5894 34.9611 26.5934 34.5345 26.1681C34.1131 25.7454 34.1131 25.0561 34.5358 24.6348C34.9611 24.2081 35.6465 24.2108 36.0705 24.6348C36.4945 25.0588 36.4945 25.7428 36.0705 26.1681V26.1681ZM32.1665 22.2628C31.7438 22.6868 31.0558 22.6894 30.6318 22.2628C30.2051 21.8374 30.2078 21.1521 30.6318 20.7294C31.0558 20.3041 31.7398 20.3041 32.1651 20.7294C32.5905 21.1534 32.5905 21.8388 32.1665 22.2628ZM28.2611 18.3601C27.8384 18.7828 27.1478 18.7814 26.7264 18.3601C26.3011 17.9334 26.3038 17.2481 26.7264 16.8241C27.1504 16.4001 27.8344 16.3988 28.2611 16.8254C28.6838 17.2468 28.6864 17.9334 28.2611 18.3601" fill="#8661DE" fill-opacity="0.44"></path><path d="M24.3532 12.9173C24.5559 13.1199 24.6746 13.3999 24.6759 13.6853C24.6706 13.9719 24.5586 14.2506 24.3572 14.4546C24.1559 14.6546 23.8732 14.7693 23.5892 14.7693C23.0172 14.7653 22.5039 14.2586 22.5039 13.6839C22.5039 13.3999 22.6226 13.1213 22.8226 12.9199C23.0252 12.7173 23.3012 12.6013 23.5892 12.5973C23.8759 12.6013 24.1532 12.7159 24.3532 12.9173" fill="#8661DE" fill-opacity="0.44"></path><path d="M71.5346 51.6545C71.7346 51.8532 71.8532 52.1332 71.8506 52.4212C71.8492 52.7052 71.7359 52.9892 71.5346 53.1892C71.3332 53.3919 71.0519 53.5026 70.7679 53.5039C70.1959 53.5066 69.6839 52.9932 69.6799 52.4199C69.6839 52.1332 69.7946 51.8532 69.9972 51.6492C70.1959 51.4506 70.4799 51.3359 70.7639 51.3359C71.0559 51.3359 71.3319 51.4505 71.5346 51.6545Z" fill="#8661DE" fill-opacity="0.44"></path><path d="M67.6265 49.2801C67.1998 49.7055 66.5198 49.7055 66.0931 49.2801C65.6705 48.8588 65.6665 48.1721 66.0918 47.7468C66.5158 47.3241 67.2038 47.3228 67.6278 47.7468C68.0531 48.1721 68.0491 48.8588 67.6265 49.2801V49.2801ZM63.7225 45.3761C63.2971 45.8028 62.6145 45.8014 62.1891 45.3748C61.7665 44.9534 61.7625 44.2681 62.1891 43.8428C62.6105 43.4188 63.3011 43.4188 63.7225 43.8414C64.1478 44.2668 64.1438 44.9535 63.7225 45.3761ZM59.8171 41.4721C59.3918 41.8974 58.7091 41.8974 58.2838 41.4708C57.8625 41.0494 57.8585 40.3628 58.2838 39.9374C58.7051 39.5148 59.3971 39.5161 59.8171 39.9361C60.2451 40.3628 60.2398 41.0494 59.8171 41.4721V41.4721ZM55.9145 37.5681C55.4878 37.9934 54.8025 37.9881 54.3785 37.5668C53.9545 37.1414 53.9545 36.4601 54.3798 36.0334C54.8025 35.6108 55.4878 35.6081 55.9132 36.0321C56.3358 36.4548 56.3358 37.1441 55.9145 37.5681V37.5681ZM52.0091 33.6628C51.5838 34.0881 50.8971 34.0841 50.4745 33.6614C50.0491 33.2374 50.0491 32.5548 50.4745 32.1294C50.8971 31.7068 51.5838 31.7028 52.0091 32.1281C52.4305 32.5494 52.4305 33.2414 52.0091 33.6628ZM48.1051 29.7588C47.6798 30.1854 46.9931 30.1801 46.5718 29.7574C46.1451 29.3321 46.1411 28.6468 46.5678 28.2214C46.9891 27.8001 47.6798 27.7988 48.1051 28.2241C48.5278 28.6454 48.5278 29.3361 48.1051 29.7588ZM44.1958 25.8508C43.7705 26.2761 43.0878 26.2748 42.6625 25.8495C42.2411 25.4268 42.2358 24.7415 42.6611 24.3148C43.0838 23.8935 43.7745 23.8935 44.1958 24.3148C44.6225 24.7415 44.6185 25.4281 44.1958 25.8508V25.8508ZM40.2918 21.9455C39.8651 22.3708 39.1838 22.3695 38.7571 21.9455C38.3358 21.5228 38.3318 20.8375 38.7571 20.4121C39.1798 19.9895 39.8691 19.9881 40.2931 20.4121C40.7171 20.8361 40.7131 21.5241 40.2918 21.9455V21.9455ZM36.3878 18.0415C35.9625 18.4681 35.2785 18.4668 34.8545 18.0401C34.4318 17.6188 34.4265 16.9321 34.8531 16.5068C35.2758 16.0841 35.9665 16.0841 36.3878 16.5068C36.8118 16.9321 36.8091 17.6201 36.3878 18.0415ZM32.4825 14.1374C32.0572 14.5628 31.3705 14.5588 30.9505 14.1374C30.5238 13.7094 30.5225 13.0281 30.9478 12.6014C31.3705 12.1801 32.0571 12.1761 32.4838 12.6028C32.9051 13.0254 32.9052 13.7148 32.4825 14.1374" fill="#8661DE" fill-opacity="0.44"></path><path d="M28.5798 8.69741C28.7785 8.89741 28.8971 9.17741 28.8944 9.46675C28.8931 9.75075 28.7784 10.0254 28.5758 10.2281C28.3718 10.4307 28.0958 10.5468 27.8118 10.5481C27.2371 10.5468 26.7264 10.0361 26.7251 9.46141C26.7264 9.17741 26.8424 8.90141 27.0438 8.69741C27.2451 8.49875 27.5238 8.38009 27.8064 8.37876C28.0944 8.37476 28.3745 8.49475 28.5798 8.69741Z" fill="#8661DE" fill-opacity="0.44"></path><path d="M75.6239 47.5587C75.8266 47.76 75.9412 48.0453 75.9425 48.3293C75.9425 48.612 75.8279 48.896 75.6279 49.096C75.4239 49.3013 75.1399 49.4147 74.8572 49.416C74.2852 49.4107 73.7758 48.9013 73.7705 48.3293C73.7705 48.0453 73.8892 47.7653 74.0932 47.5627C74.2946 47.3613 74.5732 47.244 74.8572 47.244C75.1439 47.248 75.4239 47.3587 75.6239 47.5587" fill="#8661DE" fill-opacity="0.44"></path><path d="M71.7198 45.1881C71.2932 45.6148 70.6119 45.6148 70.1852 45.1895C69.7625 44.7655 69.7585 44.0815 70.1865 43.6535C70.6065 43.2321 71.2972 43.2321 71.7198 43.6535C72.1452 44.0815 72.1398 44.7655 71.7198 45.1881V45.1881ZM67.8145 41.2828C67.3879 41.7095 66.7052 41.7095 66.2799 41.2841C65.8585 40.8615 65.8545 40.1762 66.2812 39.7495C66.7025 39.3282 67.3932 39.3282 67.8145 39.7495C68.2399 40.1748 68.2372 40.8615 67.8145 41.2828ZM63.9105 37.3788C63.4825 37.8055 62.8025 37.8055 62.3745 37.3788C61.9545 36.9588 61.9492 36.2708 62.3758 35.8455C62.7985 35.4228 63.4892 35.4228 63.9105 35.8455C64.3358 36.2708 64.3318 36.9575 63.9105 37.3788V37.3788ZM60.0065 33.4748C59.5798 33.9015 58.8932 33.8975 58.4718 33.4735C58.0465 33.0495 58.0452 32.3668 58.4718 31.9415C58.8945 31.5202 59.5812 31.5162 60.0052 31.9402C60.4278 32.3615 60.4278 33.0535 60.0065 33.4748ZM56.1012 29.5708C55.6758 29.9962 54.9878 29.9922 54.5678 29.5708C54.1412 29.1442 54.1398 28.4628 54.5678 28.0361C54.9892 27.6148 55.6758 27.6108 56.1012 28.0361C56.5238 28.4575 56.5238 29.1482 56.1012 29.5708ZM52.1972 25.6668C51.7705 26.0921 51.0838 26.0881 50.6625 25.6668C50.2372 25.2415 50.2372 24.5588 50.6638 24.1321C51.0852 23.7108 51.7705 23.7055 52.1972 24.1321C52.6198 24.5535 52.6198 25.2455 52.1972 25.6668ZM48.2892 21.7575C47.8625 22.1841 47.1798 22.1841 46.7532 21.7575C46.3318 21.3361 46.3278 20.6495 46.7532 20.2228C47.1758 19.8015 47.8665 19.8015 48.2878 20.2228C48.7145 20.6495 48.7105 21.3361 48.2892 21.7575V21.7575ZM44.3838 17.8535C43.9585 18.2788 43.2758 18.2788 42.8505 17.8535C42.4265 17.4308 42.4238 16.7455 42.8505 16.3188C43.2718 15.8975 43.9625 15.8961 44.3838 16.3188C44.8092 16.7455 44.8052 17.4308 44.3838 17.8535ZM40.4799 13.9495C40.0545 14.3748 39.3679 14.3708 38.9452 13.9495C38.5239 13.5282 38.5199 12.8415 38.9452 12.4148C39.3665 11.9922 40.0585 11.9922 40.4785 12.4148C40.9025 12.8375 40.9025 13.5282 40.4799 13.9495ZM36.5758 10.0442C36.1492 10.4708 35.4638 10.4668 35.0412 10.0442C34.6158 9.61883 34.6145 8.93616 35.0412 8.50949C35.4625 8.08682 36.1492 8.08416 36.5758 8.51083C36.9972 8.93216 36.9972 9.62283 36.5758 10.0442Z" fill="#8661DE" fill-opacity="0.44"></path><path d="M32.6706 4.60531C32.8706 4.80531 32.9812 5.08397 32.9865 5.37331C32.9865 5.65597 32.8706 5.93864 32.6706 6.13864C32.4679 6.34397 32.1892 6.45463 31.9012 6.45996C31.3279 6.45463 30.8186 5.94397 30.8132 5.37197C30.8186 5.08397 30.9332 4.80931 31.1372 4.60531C31.3372 4.40531 31.6159 4.28662 31.8999 4.28662C32.1879 4.29062 32.4679 4.40264 32.6706 4.60531Z" fill="#8661DE" fill-opacity="0.44"></path><path d="M79.8478 43.344C80.0451 43.5414 80.1638 43.8214 80.1638 44.108C80.1651 44.3894 80.0451 44.6694 79.8424 44.8734C79.6384 45.076 79.3625 45.192 79.0798 45.1934C78.5038 45.192 77.9945 44.6827 77.9932 44.1067C77.9945 43.8214 78.1131 43.5427 78.3118 43.344C78.5158 43.1387 78.7918 43.0254 79.0785 43.0227C79.3625 43.0214 79.6425 43.1387 79.8478 43.344" fill="#8661DE" fill-opacity="0.44"></path><path d="M75.9384 40.9694C75.5171 41.3907 74.8304 41.3947 74.4051 40.9694C73.9811 40.5454 73.9824 39.8574 74.4037 39.4347C74.8304 39.0094 75.5157 39.012 75.9384 39.4347C76.3637 39.8614 76.3637 40.5427 75.9384 40.9694ZM72.0331 37.0654C71.6117 37.4854 70.9251 37.4894 70.4997 37.064C70.0784 36.6414 70.0784 35.952 70.4997 35.5294C70.9251 35.104 71.6117 35.108 72.0331 35.5294C72.4597 35.956 72.4597 36.6387 72.0331 37.0654V37.0654ZM68.1291 33.16C67.7064 33.5827 67.017 33.5814 66.5944 33.1587C66.1744 32.7387 66.173 32.048 66.5944 31.6267C67.021 31.2 67.7077 31.204 68.1291 31.6254C68.5504 32.0467 68.5544 32.7347 68.1291 33.16ZM64.225 29.256C63.8037 29.6774 63.113 29.6773 62.6904 29.2533C62.265 28.8293 62.269 28.1427 62.6917 27.7227C63.117 27.296 63.7997 27.296 64.2237 27.72C64.6464 28.1427 64.6504 28.8294 64.225 29.256ZM60.3197 25.352C59.8984 25.7733 59.2077 25.772 58.7864 25.3507C58.361 24.9253 58.3637 24.24 58.7864 23.8173C59.2117 23.392 59.8957 23.392 60.3197 23.816C60.7424 24.2387 60.7464 24.9253 60.3197 25.352V25.352ZM56.417 21.448C55.9944 21.868 55.3051 21.868 54.8824 21.4467C54.4571 21.0214 54.4611 20.3347 54.8824 19.9147C55.3077 19.488 55.9904 19.4867 56.417 19.9134C56.8384 20.3347 56.8424 21.0227 56.417 21.448ZM52.5077 17.5387C52.0851 17.9614 51.3997 17.964 50.9731 17.5374C50.5517 17.116 50.5504 16.4254 50.9717 16.004C51.3984 15.5787 52.0851 15.5827 52.5077 16.004C52.9331 16.4294 52.9331 17.1134 52.5077 17.5387V17.5387ZM48.6024 13.6347C48.1811 14.056 47.4944 14.0587 47.0704 13.6347C46.6464 13.2107 46.6464 12.5227 47.0691 12.1C47.4944 11.6747 48.1811 11.6774 48.6037 12.1C49.0277 12.5254 49.0277 13.208 48.6024 13.6347ZM44.6984 9.73069C44.2771 10.152 43.5864 10.1507 43.1651 9.72936C42.7437 9.30669 42.7424 8.61736 43.1637 8.19469C43.5891 7.76936 44.2771 7.77336 44.6984 8.19469C45.1211 8.61736 45.1251 9.30536 44.6984 9.73069V9.73069ZM40.7944 5.82536C40.3717 6.24802 39.6824 6.24802 39.2611 5.82536C38.8344 5.39869 38.8384 4.71202 39.2597 4.29069C39.6864 3.86402 40.3677 3.86402 40.7957 4.29202C41.2157 4.71336 41.2197 5.40002 40.7944 5.82536" fill="#8661DE" fill-opacity="0.44"></path><path d="M36.8905 0.386735C37.0892 0.585402 37.2079 0.865399 37.2079 1.15073C37.2039 1.43873 37.0932 1.7174 36.8892 1.92007C36.6905 2.12007 36.4079 2.23608 36.1239 2.23608C35.5479 2.23608 35.0412 1.72143 35.0359 1.14943C35.0372 0.86543 35.1519 0.582764 35.3532 0.382764C35.5559 0.180097 35.8345 0.0694135 36.1225 0.0654135C36.4065 0.0640802 36.6879 0.184068 36.8905 0.386735" fill="#8661DE" fill-opacity="0.44"></path><path d="M5.0746 64.8653C11.1493 58.7919 20.9946 58.7919 27.0693 64.8653C33.1413 70.9386 33.1413 80.7839 27.0679 86.8586C20.9959 92.9306 11.1479 92.9319 5.07593 86.8586C-0.998736 80.7853 -0.997404 70.9373 5.0746 64.8653" fill="#8661DE" fill-opacity="0.44"></path></svg>